<?xml version="1.0" encoding="utf-8"?>
<!-- Generator: Adobe Illustrator 23.1.1, SVG Export Plug-In . SVG Version: 6.00 Build 0)  -->
<svg version="1.1" id="Capa_1" xmlns="http://www.w3.org/2000/svg" xmlns:xlink="http://www.w3.org/1999/xlink" x="0px" y="0px"
	 viewBox="0 0 612 792" style="enable-background:new 0 0 612 792;" xml:space="preserve">
<style type="text/css">
	.st0{fill:#010101;}
	.st1{fill:#BE0411;}
	.st2{fill:#070707;}
	.st3{fill:#BD1B26;}
	.st4{fill:#B51B27;}
	.st5{fill:#983749;}
	.st6{fill:#151314;}
	.st7{fill:#343434;}
	.st8{fill:#E08A89;}
	.st9{fill:#C41817;}
	.st10{fill:#C68595;}
	.st11{fill:#B91D27;}
	.st12{fill:#982324;}
	.st13{fill:#A40B19;}
	.st14{fill:#424242;}
	.st15{fill:#BE0611;}
	.st16{fill:#BB0B17;}
	.st17{fill:#BF0815;}
	.st18{fill:#BE0714;}
	.st19{fill:#B90D19;}
	.st20{fill:#B70E19;}
	.st21{fill:#BF051A;}
	.st22{fill:#BB0C1A;}
	.st23{fill:#924B52;}
	.st24{fill:#BE1B25;}
	.st25{fill:#B52F3C;}
	.st26{fill:#AD3434;}
	.st27{fill:#B41318;}
	.st28{fill:#B51A27;}
	.st29{fill:#D27E83;}
	.st30{fill:#B9111C;}
	.st31{fill:#B40814;}
	.st32{fill:#CE000F;}
	.st33{fill:#CD0004;}
	.st34{fill:#B91523;}
	.st35{fill:#C2040B;}
	.st36{fill:#CB171D;}
	.st37{fill:#BF0413;}
	.st38{fill:#C00413;}
	.st39{fill:#BC0713;}
	.st40{fill:#BF0513;}
	.st41{fill:#B80F15;}
	.st42{fill:#AF2125;}
	.st43{fill:#B90A12;}
	.st44{fill:#BD0519;}
	.st45{fill:#BC0814;}
	.st46{fill:#BB0817;}
	.st47{fill:#841A21;}
	.st48{fill:#995254;}
	.st49{fill:#BF0714;}
	.st50{fill:#B5070D;}
	.st51{fill:none;}
</style>
<g>
	<path class="st0" d="M439.9,297.4c-5.2-5.6-9.7-11-14.9-16.8c-0.8-2,0.8-2.5,3.4-2c34.3,26.7,61.7,55,71.4,88.2
		c14.1,48-36.3,93.6-119.1,109.1c-12.3,2.5-24.6,4.5-38.1,4.5c-9.7,0-11.5,2.5-12.3,8c-7.1,68-9.7,136-6,204
		c0.8,21.7,2.6,43.2,5.2,64.7c0.8,5.6,3.4,6.4,12.3,6.4c39.9,0,80.2,1.3,119.1,6.4c1.8,0.5,4.4,1.1,6,1.3c0,3-3.4,2.5-7.1,2.5
		c-60.9,0-121.8,0-183.6,0c-1.8,0-2.6-0.5-4.4-0.5c-42.5,1.1-83.7-1.3-126.2,1.1c22-6.2,46-7.5,69.7-8.7c22.8-1.3,47-2,69.7-2
		c9.7,0,13.1-1.1,14.1-7.1c5.2-42.4,7.9-85.6,7.9-128.4c0-46.7-0.8-93.3-6-139.8c-0.8-5-1.8-7.1-12.3-8
		c-75-5.6-131.4-42.4-136.7-86.1c-5.2-41.1,15.7-77.3,53-110.8c4.4-0.5,4.4,1.3,5.2,3c-4.4,8.8-10.5,16.8-15.7,25.6
		c-9.7,15.5-16.7,31.1-19.4,47.5c-2.6,7.5-1.8,15.5,0,23.1c2.6,16.8,8.7,33.1,25.4,47.5c18.3,15.5,42.5,26.1,73.2,31.1
		c52.2,7.5,100.4,2.5,144.5-16.1c48.6-21.9,67.1-50.5,55.6-85.6c-5.2-16.8-14.9-33.6-28-49.1C444.3,306.3,440.7,301.7,439.9,297.4z"
		/>
	<path class="st1" d="M313.7,228.2c-2.6,1.3-5.2,3.7-5.2,6.2l0,0c-2.6,3.9-6,8-10.5,11.4l0,0c-2.6,2-1.8,5-6,6.4l0,0
		c-0.8,2.5-1.8,5-6,6.4c-3.4,3.7-7.1,6.4-10.5,10.1c-3.4,1.3-3.4,4.5-5.2,6.4c-3.4,7.5-11.5,14.2-16.7,21.1
		c-0.8,0.5-2.6,0.5-3.4,0.5c-1.8-0.5-2.6-1.3-3.4-2.5c-3.4-2,3.4-6.4-5.2-7.1c-7.9-2-7.1-6.2-7.9-9.4c0-2,0.8-3.9,2.6-5.6
		c17.5-16.1,31.6-33.6,51.2-49.1c0.8-0.5,1.8-1.1,3.4-1.3c0.8,0,0.8-0.5,0.8-1.1c1.8-6.2,7.9-10.5,11.5-15.5
		c20.2-26.1,20.2-52.1,3.4-78.6c-3.4-5.6-7.9-10.5-9.7-16.1c0-1.1,0-1.3,0-2v-0.5c1.8-1.3,4.4-3,7.1-3.9c1.8-0.5,3.4-0.5,6,0
		c6,2.5,8.7,6.4,10.5,10.5l0,0l10.5,14.4l0,0c15.7,16.8,17.5,34.9,14.1,54.2c-0.8,3-1.8,5.6-4.4,8l-0.8,0.5c-9.7,3-4.4,8-4.4,11.9
		c0,0,0,0,0,0.5C329.4,212.1,324.2,220.6,313.7,228.2z"/>
	<path class="st2" d="M273,773c52.2,0,103.8,0,156-0.5c12.3,0,25.4,2,38.1-1.3c4.4,0,8.7,0.5,12.3,2c-0.8,0.5-0.8,1.1-1.8,1.1
		c-65.3-1.3-131.4,0-196.7-0.5C278.6,773.8,275.6,773.2,273,773z"/>
	<path class="st3" d="M218.5,54.7c0,0.5,0.8,0.5,1.8,0.5c2.6,1.1,7.1,1.3,8.7,3l0,0c4.4,0.5,7.9,1.3,7.9,5c0,2-0.8,3-4.4,3.9
		c-1.8,0-2.6,0-3.4-0.5c-6-3.9-14.9-5-22-8l-0.8-0.5c-2.6-3.9,2.6-3.9,7.1-3.9h0.8C216.9,54.2,217.7,54.2,218.5,54.7z"/>
	<path class="st4" d="M213.3,55.4c-1.8,0-3.4,0.5-4.4,1.3c-0.8,0.5-1.8,1.1-3.4,0.5c-4.4-1.1-7.9-2.5-12.3-3.7
		c-0.8-0.5-1.8-1.1-0.8-2c0.8-1.3,3.4-1.3,6-1.3c6,0.5,13.1-0.5,17.5,2.5C215.9,53.7,215.1,55.4,213.3,55.4z"/>
	<path class="st5" d="M130,40c5.2,0.5,11.5,0,16.7,1.3c-0.8,1.1-2.6,1.1-3.4,1.3c-7.1-0.5-14.9-1.1-22-2C122.2,38.2,126.6,40,130,40
		z"/>
	<path class="st6" d="M218.5,275.1c1.8,2.5-3.4,3.9-2.6,6.4c-0.8,2,1.8,5.6-5.2,4.5c0-1.3-0.8-2.5-3.4-3
		C211.7,280.1,209.9,275.1,218.5,275.1z"/>
	<path class="st7" d="M428.4,278.1c-0.8,0.5-2.6,1.3-3.4,2c-3.4-2-6-4.5-7.9-7.1c-0.8-1.3,0-2,2.6-1.3
		C424.1,273.1,426.8,275.6,428.4,278.1z"/>
	<path class="st8" d="M130,40c-2.6,0.5-5.2,0-7.9,1.3c0,0-0.8,0.5-1.8,0.5c-5.2,0.5-9.7,0.5-14.1-1.1c1.8-1.3,4.4-0.5,6-1.3
		c0.8,0,1.8-0.5,2.6-0.5c1.8-0.5,3.4-0.5,5.2,0C124,39.2,126.6,39.7,130,40z"/>
	<path class="st9" d="M171.8,42.2c1.8,1.1,1.8,1.1,3.4,1.3c-0.8,2,5.2,2,4.4,3.9c-0.8,1.3-2.6,1.1-4.4,1.1c-3.4,0-7.1,0-9.7-2
		C165.5,45.1,163.9,43.7,171.8,42.2z"/>
	<path class="st10" d="M112.5,39.2c-1.8,1.3-4.4,1.3-6,1.3c-6.1-0.6-13.2,1.3-18.4-2.1C96,39.2,104.6,39.2,112.5,39.2z"/>
	<path class="st11" d="M178.6,50c-0.8-0.5-1.8-1.3-0.8-2c0.8-0.5,0-1.3-0.8-2.5c0.8,0,2.6,0,3.4,0h0.8c2.6,0.5,6,0,7.1,2.5
		c0,1.3-0.8,2.5-2.6,3c-0.8,0.5-1.8,0.5-1.8,0.5C182.2,51.3,180.4,50.5,178.6,50z"/>
	<path class="st12" d="M143.7,43.7c0.8-0.5,1.8-1.1,2.6-1.3c0.8,0,0.8-0.5,1.8-0.5c4.4,0,8.7,0,12.3,1.3c-0.8,1.3-3.4,1.1-5.2,1.3
		c-0.8,0-0.8,0-1.8,0C149.8,44.7,147.2,44.2,143.7,43.7z"/>
	<path class="st9" d="M186.7,52.2c-0.8-0.5-0.8-1.1-0.8-1.3c0.8-1.1,1.8-2,3.4-2c4.4-1.1,6,0,7.1,1.3c0.8,1.1,0,1.3-1.8,2
		c-0.8,0-2.6,0.5-3.4,1.1c-0.8,0.5-0.8,0.5-1.8,0.5C188.3,53,187.5,52.9,186.7,52.2z"/>
	<path class="st13" d="M155,45.1c1.8-0.5,3.4-1.1,5.2-1.3c0.8,0,0.8,0,1.8,0c1.8,0,3.4,0.5,5.2,0.5c0,1.1,2.6,2,0,3
		C162.1,46.2,158.5,45.5,155,45.1z"/>
	<path class="st14" d="M419.3,271.8c-0.8,0.5-1.8,1.1-2.6,1.3c-2.6-1.3-7.1-3.7-3.4-4.5C416.7,266.7,418.3,270.1,419.3,271.8z"/>
	<path class="st15" d="M207.2,316.2c2.6-10.1,11.5-18.5,17.5-27.4c0.8-1.3,3.4-2.5,1.8-4.5c2.6-2.5,4.4-5.6,7.1-8
		c4.4,2.5-0.8,8,7.9,9.4c0,3,0,6.2,5.2,8c0.8,0.5,1.8,1.1,2.6,1.3c-1.8,5.6-7.1,10.5-7.9,16.1c0,0.5,0,1.1,0.8,1.3h-0.8
		c-6,3-6-2.5-12.3-2c0.8,6.2,7.9,11.9,2.6,18.5l0,0c-1.8,0.5-3.4,1.1-5.2,1.1c-5.2,0-7.9,1.3-11.5,3c-4.4,1.3-3.4,6.4-11.5,6.2
		c-1.8-0.5-2.6-1.3-4.4-2l0,0c0.8-3.9,1.8-8,3.4-11.9c0-1.1,0.8-2,0.8-3C208,321.8,205,318.8,207.2,316.2z"/>
	<path class="st16" d="M316.3,310.8c-2.6,0-5.2-0.5-7.9-0.5c-1.8-1.1-1.8-2,0-2.5c22-3,44.3-3,65.3,2c22,5.6,37.3,14.2,40.7,28.6
		c0,1.1,1.8,2,2.6,2.5c1.8,4.5,1.8,8.8,0,13.5c0,0.5-0.8,0.5-0.8,1.1c-0.8-0.5-1.8-1.1-1.8-1.1c-3.4-2.5,1.8-6.2-3.4-8
		c-0.8,0-0.8,0-1.8-0.5c-5.2-3.7-5.2-8.8-11.5-12.5c-0.8-0.5-1.8-1.1-1.8-1.3c-1.8-1.3-3.4-2.5-6-3.7c-0.8-0.5-1.8-1.1-2.6-1.3
		c-3.4-2-7.1-3.9-10.5-5c-0.8-0.5-1.8-1.1-2.6-1.1c-8.7-3-17.5-3.9-27.2-5C334.6,314.7,326,312.3,316.3,310.8z"/>
	<path class="st17" d="M419.3,404c-3.4,1.3-7.9,3-11.5,5c-4.4,1.1-6-1.3-7.9-3c3.4-2,7.9-4.5,11.5-6.4c4.4-1.1,6-3,7.1-5.6
		c0-1.1,0-1.3,0-2.5c1.8-1.1,3.4-2,5.2-3.7c5.2-1.1,3.4-4.5,6-6.4l0,0c7.1-5,2.6-11.4,5.2-16.7c0-0.5-0.8-1.1-0.8-1.1l0.8-0.5
		c-1.8-3.9-0.8-8-0.8-11.9c0-4.5,4.4-6.4,12.3-5c9.7,13.5,6,26.7,0,40c-5.2,3.9-10.5,8-15.7,11.4C427.6,400.2,424.1,402.5,419.3,404
		z"/>
	<path class="st18" d="M344.3,443.2c27.2-0.5,49.6-8,71.4-16.7c9.7,1.1,6,3.9,4.4,7.1c1.8,3-5.2,3.7-6,6.2
		c-14.1,3.9-24.6,11.4-40.7,13.1c-6,1.1-10.5,1.3-14.9-3c-3.4-3.9-13.1-2-17.5-5.6C341.7,444,343.5,443.5,344.3,443.2z"/>
	<path class="st19" d="M420.1,433.9c-0.8-2.5,0.8-5.6-4.4-7.1c16.7-8.7,29.8-18.5,40.7-30.6c7.1,1.3,3.4,4.5,2.6,6.4
		c-7.9,8.8-14.9,19.2-28,26.7C428.4,431.5,425.8,434.7,420.1,433.9z"/>
	<path class="st20" d="M447.7,346.1c-17.5,2.5-8.7,11-11.5,16.8c-2.6-14.2-10.5-27.4-16.7-41.1c-0.8-1.3,0.8-2,3.4-2
		C432.8,328.5,445.1,335.3,447.7,346.1z"/>
	<path class="st21" d="M241.3,312.3c-1.8-6.2,4.4-11,7.9-16.1c0.8,0,1.8,0,2.6,0C250.2,301.7,245.7,306.7,241.3,312.3z"/>
	<path class="st22" d="M436.4,364.9c-1.8,5.6,5.2,11.9-5.2,16.7C432.8,376,434.6,370.4,436.4,364.9z"/>
	<path class="st23" d="M460.8,387.8c-0.8-3.7,1.8-6.2,5.2-10.1c0.8,6.2,1.8,10.1-1.8,14.2C461.8,391,461.8,389.5,460.8,387.8z"/>
	<path class="st24" d="M460.8,387.8c2.6,1.1,2.6,2.5,3.4,3.9c0,2.5,0,4.5-2.6,6.4c-1.8-1.1-2.6-2.5-4.4-3.9
		C459.2,392,460,389.8,460.8,387.8z"/>
	<path class="st25" d="M417.5,354.2c0-4.5,0-8.8,0-13.5C420.1,345.4,420.1,349.9,417.5,354.2z"/>
	<path class="st26" d="M423.1,319.8c-0.8,0.5-2.6,1.1-3.4,2c-1.8-2.5-3.4-4.5-6-8C420.1,314.7,422.3,317.3,423.1,319.8z"/>
	<path class="st22" d="M431,381.4c-2.6,2,6,7.5-6,6.4C426.8,386,428.4,383.5,431,381.4z"/>
	<path class="st27" d="M268.5,274.8c0-2.5-1.8-6.2,5.2-6.4C273.8,271.3,271.1,273.1,268.5,274.8z"/>
	<path class="st28" d="M458.2,394c2.6,1.1,3.4,2.5,4.4,3.9c0,2,0,3.7-2.6,5c-0.8-2.5,0.8-5-2.6-6.4c0-0.5,0-1.1,0-1.3
		C456.6,394.5,457.4,394.5,458.2,394z"/>
	<path class="st29" d="M308.4,307.4c0,1.1,0,2,0,2.5c-2.6,0-5.2,0-7.9,0C301.4,308.2,304,306.7,308.4,307.4z"/>
	<path class="st25" d="M409.6,346.5c6,2,3.4,5,3.4,8C410.4,351.7,410.4,349.2,409.6,346.5z"/>
	<path class="st30" d="M284.6,87.3c0.8,0,1.8,0,1.8,0.5c7.9,4.5,15.7,9.4,21,16.1H303c-0.8,0-0.8,0-1.8,0c-1.8,0.5-2.6,2-4.4,3
		c0,0-0.8,0.5-1.8,0.5c-5.2-4.5-10.5-9.4-15.7-14.2c0,0,0,0,0-0.5C278.6,89.8,278.6,87.9,284.6,87.3z"/>
	<path class="st21" d="M246.5,294.2c-10.5-0.5-13.1-3-5.2-8c0.8-1.1,0.8-3.7,1.8-3.7c4.4-1.1,40.7-26.1,40.7-25.1
		C283.8,260.6,246.5,291.2,246.5,294.2z"/>
	<path class="st31" d="M335.6,192.5c0,1.3-0.8,3-0.8,4.5c-0.8,1.3-4.4,1.3-4.4,0c0-0.5-0.8-0.5-0.8-1.1c-6-5.6-0.8-5,4.4-5
		C334.6,190.8,335.6,191.6,335.6,192.5z"/>
	<path class="st32" d="M255.4,273.8c-4.4-2.5-4.4-5-1.8-8C259.9,268.1,257.2,271.3,255.4,273.8z"/>
	<path class="st33" d="M298,106.8c0-1.3-0.8-4.5,5.2-3C302.2,105.4,301.4,106.8,298,106.8z"/>
	<path class="st34" d="M260.7,71.8c1.8,1.3,3.4,2.5,6,3c0.8,0,0.8,0.5,1.8,1.1c1.8,2,6,3,6,5v0.5c-0.8,1.3-1.8,3-3.4,3.9
		c-0.8,0.5-2.6,0.5-3.4,0c-7.9-5-15.7-10.1-26.2-13.5c0-0.5,0-1.1,0-1.1c-0.8-1.3-1.8-3-0.8-4.5c0.8-1.1,2.6-1.1,3.4-0.5
		C249.2,67.3,254.6,69.2,260.7,71.8C260.7,71.1,260.7,71.1,260.7,71.8z"/>
	<path class="st35" d="M268.5,85.3c0-2,0.8-3.9,5.2-4.5c0.8,0,1.8,0,1.8,0.5c3.4,1.3,6,3,9.7,4.5c0,0.5,0,1.1,0,1.3
		c-2.6,0.5-4.4,1.3-5.2,3c-0.8,1.1-2.6,1.1-4.4,0.5c-2.6-1.3-4.4-3-7.1-4.5C268.5,86.2,268.5,85.8,268.5,85.3z"/>
	<path class="st36" d="M241.3,64.7c0,1.1,0,2,0,3c0,1.1-2.6,1.3-4.4,1.1c-0.8-0.5-1.8-0.5-1.8-1.1c-0.8-0.5-0.8-1.3-0.8-2
		c0.8-1.1,0.8-1.3,0.8-2.5c0.8,0,1.8,0,2.6,0s1.8,0.5,2.6,0.5C241.3,63.6,241.3,64.2,241.3,64.7z"/>
	<path class="st37" d="M271.9,436.5c0.8,0,1.8,0,2.6,0c1.8,1.1,2.6,2.5,2.6,3.9c0,2-3.4,3.7-3.4,6.2c0,1.3,0,3-2.6,3.7
		c-10.5,0-15.7-7.1-26.2-7.5c-0.8,0-1.8,0-2.6,0c-2.6-1.3-6-3-8.7-5c0-3,0.8-6.4-7.9-6.4c-16.7-7.1-22.8-17.6-28-28.6
		c-1.8-2.5-0.8-5-0.8-7.5c0-1.1,0.8-1.3,2.6-2c4.4-1.3,9.7-1.1,14.9-1.1c4.4,0.5,8.7,1.3,8.7,4.5c0,7.1,8.7,11,14.9,15.5
		c0.8,0.5,1.8,1.1,1.8,2c0.8,2,1.8,3.9,5.2,5c0.8,0.5,1.8,1.1,2.6,1.3C251.8,427.6,255.4,435.6,271.9,436.5z"/>
	<path class="st38" d="M201.6,339.8c7.9,0.5,3.4-7.1,11.5-6.4c3.4,1.3,3.4,3.9,3.4,6.4c0.8,7.5-7.9,15.1-1.8,23.1
		c1.8,2-2.6,3.9-5.2,5c-5.2,2-3.4,5.6-4.4,8.7c-0.8,3.9-2.6,7.5-11.5,6.4c-9.7-6.2-3.4-13.1-3.4-19.4c-0.8-2.5,0-5,0.8-7.5
		C196.2,350.4,190.9,343.5,201.6,339.8z"/>
	<path class="st39" d="M190.1,362.9c0,4.5,0,8.8,0,13.5c0,2.5,0,5,5.2,5c3.4,2.5,7.1,5.6,7.1,8.8c-0.8,2-5.2,2.5-7.1,3.9l0,0
		c-7.1,0.5-1.8-3.7-5.2-5C188.3,381,186.7,372.1,190.1,362.9z"/>
	<path class="st40" d="M224.8,432.2c0.8-1.3-0.8-3.9,2.6-3.9c4.4,0,4.4,3.7,7.9,5c4.4,2,3.4,3.9-1.8,5.6
		C227.4,437.1,226.4,433.9,224.8,432.2z"/>
	<path class="st41" d="M201.6,339.8c-7.9,4.5-2.6,11.4-10.5,16.1c0.8-6.2-0.8-12.5,7.1-17.6C199.8,338.6,200.6,339.4,201.6,339.8z"
		/>
	<path class="st41" d="M201.6,326.3c0,3.9,1.8,8-3.4,11.9C193.5,333.6,198.8,330.3,201.6,326.3z"/>
	<path class="st42" d="M190.9,389.8c1.8,1.3,3.4,3,5.2,5c0,3,0,6.2,0,8.7C191.9,399,190.1,394.5,190.9,389.8z"/>
	<path class="st41" d="M207.2,316.2c0,2.5,2.6,6.2-4.4,7.1C203.2,320.9,204.2,318.4,207.2,316.2z"/>
	<path class="st40" d="M271.9,449.6c-0.8-1.1-1.8-2-2.6-3c1.8-1.3,8.7-1.3,5.2-5c0-1.3,0-3,0-5c14.9,3,29.8,6.4,46,8
		c5.2,2.5,11.5-0.5,16.7,1.3c0,2.5-2.6,3.7-6,4.5c-6,0.5-12.3,0.5-18.3,1.1c7.1,0,14.1-0.5,21-1.1c10.5,0,21-2,28.8,3.9
		c-0.8,1.3-3.4,1.3-6,1.3c-12.3,2-24.6,0-37.3,3c-0.8,0-1.8,0-2.6,0c-8.7-2.5-18.3-1.3-28-3h-1.4l-0.8-0.5c2.6-3.9-0.8-5-7.1-4.5
		C276.4,451.5,273.8,451.3,271.9,449.6z"/>
	<path class="st43" d="M362.3,454.5c-9.7-3.7-21-1.3-31.6-2c-1.8-1.1-1.8-2,0-3c1.8-1.1,3.4-2,5.2-3c0.8-1.1,4.4-0.5,5.2-2l0,0
		c8.7,1.3,22-1.3,22.8,7.5c0,0.5,6,0.5,8.7,1.1C370.1,454.5,366.7,455.2,362.3,454.5z"/>
	<path class="st44" d="M271.9,449.6c9.7,0,19.4,0,30.6,0c-4.4,5-14.9,1.1-16.7,6.2c-15.7-2-29.8-6.4-42.5-12.5
		c7.1-0.5,13.1-0.5,17.5,3.9C263.3,449.6,267.7,449.6,271.9,449.6z"/>
	<path class="st45" d="M318.9,459.1c1.8-4.5,8.7-2.5,13.1-3c7.9-0.5,15.7,0,22.8,0C344.3,459.1,332,459.5,318.9,459.1z"/>
	<path class="st45" d="M288.3,456.2c9.7,1.1,20.2-2.5,28,3C306.6,459.1,296.9,458.2,288.3,456.2z"/>
	<path class="st39" d="M208,365.4c2.6,0,6-1.1,5.2-2c-9.7-8,1.8-16.1,0.8-23.6c3.4-2.5,5.2-6.2,12.3-2.5c0,2.5,0.8,5.6-0.8,8
		c0,3.7,0,6.4-0.8,10.1c-0.8,11.9-1.8,24.4,0,36.6v0.5l0.8,0.5C228.1,400,237,406,237,414c-7.9-4.5-21-7.5-16.7-16.7
		c0.8-2-1.8-2.5-5.2-3c-2.6-2-0.8-3.7,0-5c2.6-3.7,0-5.6-5.2-7.1C202.4,377.1,203.2,371.5,208,365.4z"/>
	<path class="st46" d="M230.8,330.3c-0.8-3.9,0.8-8.7-4.4-12.5c-4.4-3.7-4.4-8,1.8-9.4c7.9-2.5,6,3.7,10.5,5
		c0.8,0.5,1.8,0.5,2.6,0.5C237.9,319.2,235.3,324.8,230.8,330.3z"/>
	<path class="st40" d="M271.9,436.5c-1.8,1.3-2.6,3-7.1,1.3c-12.3-3.9-19.4-10.1-21-17.6c8.7-0.5,10.5,3.9,13.1,7.1
		C259.9,431.5,270.3,432.2,271.9,436.5z"/>
	<path class="st22" d="M400,405.9c2.6,1.1,5.2,2,7.9,3c-4.4,3.7-12.3,3.7-18.3,5c-3.4,0.5-4.4-0.5-3.4-2
		C390.3,410,395.5,407.9,400,405.9z"/>
	<path class="st46" d="M224.8,345.4c0-3,0-6.2,0-8.8c-2.6-2-3.4-4.5,0-6.4c1.8,0,4.4,0,6,0.5C230,335.3,228.2,340.3,224.8,345.4z"/>
	<path class="st47" d="M340.9,444.5c-0.8,1.3-2.6,1.3-5.2,2c-6,0-12.3,0-18.3-0.5v-0.5c0.8-0.5,1.8-0.5,3.4-1.1
		C326.8,444.5,333.8,444.5,340.9,444.5z"/>
	<path class="st22" d="M419.3,394c-0.8,2.5,3.4,7.5-7.1,5.6C413.1,397.1,415.7,395.4,419.3,394z"/>
	<path class="st48" d="M386,412.1c0.8,0.5,2.6,1.3,3.4,2c-3.4,1.3-7.1,2.5-12.3,1.3C379.8,414.6,383.4,413,386,412.1z"/>
	<path class="st22" d="M419.3,404c1.8-3.7,5.2-5.6,11.5-6.4C430.2,401.6,425.8,403.4,419.3,404z"/>
	<path class="st49" d="M224.8,329.8c0,2,0,4.5,0,6.4c-4.4,0-7.1,2.5-11.5,3c0-2,0-4.5,0-6.4C216.9,331.1,216.9,326.8,224.8,329.8z"
		/>
	<path class="st38" d="M213.3,381.4c13.1,4.5,1.8,8.7,0,13.1c-5.2,0-11.5,0-16.7,0c0-2,1.8-3,5.2-3
		C205,387.8,205.8,383.5,213.3,381.4z"/>
	<path class="st50" d="M274.8,441.5c2.6,1.1,5.2,1.3,4.4,3.7c-1.8,2.5-6,1.1-9.7,1.3C268.5,443.5,273,443.2,274.8,441.5z"/>
	<path class="st40" d="M241.3,417.1c0.8,1.1,1.8,2,2.6,3c-7.1,0.5-8.7-1.3-7.9-5C237.9,416,239.7,416.6,241.3,417.1z"/>
	<path class="st40" d="M238.7,427.2c0.8,1.1,1.8,1.3,2.6,2c0,0.5-0.8,1.1-1.8,1.3c-0.8-0.5-1.8-1.1-2.6-1.3
		C236.1,428.5,237.9,428.1,238.7,427.2z"/>
	<path class="st37" d="M213.3,381.4c-4.4,3-3.4,8-11.5,9.4c-1.8-3.7-7.9-5.6-5.2-9.4c8.7-1.1,4.4-5.6,5.2-8.7
		c0.8-3.1-2.6-6.4,5.2-7.5C210.7,370.9,201.6,377.3,213.3,381.4z"/>
	<path class="st44" d="M330.4,449.6c0,1.1,0,2,0,3c-7.1-0.5-14.1,1.1-22-1.1C316.3,450.2,323.4,449,330.4,449.6z"/>
</g>
<line class="st51" x1="1274" y1="750" x2="1274" y2="789"/>
</svg>
